<svg xmlns="http://www.w3.org/2000/svg" width="150" height="100%" style="shape-rendering:geometricPrecision;text-rendering:geometricPrecision;image-rendering:optimizeQuality;fill-rule:evenodd;clip-rule:evenodd" viewBox="0 0 318 93">
<title>Gatuari</title>
<path fill="#000" d="M22.5-.5h6c7.9436 1.94351 12.9436 6.94351 15 15-.4799 2.992-2.1466 4.1586-5 3.5-.6928-5.5231-3.6928-9.02307-9-10.5-2.7138.44042-4.8805 1.77375-6.5 4-5.6593 12.5068-6.9926 25.5068-4 39 1.193 6.912 3.193 13.5787 6 20 1.3088 2.4757 3.1421 4.4757 5.5 6 2.9275-2.5877 4.4275-5.921 4.5-10 1.0359-7.2991 1.5359-14.6325 1.5-22-1.4305-.0792-2.7638.2542-4 1-1.2472-1.5064-1.2472-3.0064 0-4.5 6.3595-.8306 12.6928-.6639 19 .5.2093.586.5426 1.086 1 1.5-1.4379 1.5686-2.9379 3.0686-4.5 4.5-.8388 10.6974-3.8388 20.6974-9 30-1.214 1.5488-2.714 2.7155-4.5 3.5-13.4709 3.4091-23.6376-.7575-30.5-12.5-2.15037-5.2831-3.650374-10.6164-4.5-16v-11c1.277673-9.8533 3.77767-19.52 7.5-29 3.5421-6.34312 8.7088-10.67645 15.5-13Z"/><path fill="#000" d="M317.5 51.5v1c-4.201 10.5459-10.535 19.7126-19 27.5-11.7 4.9564-17.534 1.123-17.5-11.5-3.123 5.7536-7.289 10.5869-12.5 14.5-10.437 2.2386-16.603-1.928-18.5-12.5-.866-8.75-.366-17.4167 1.5-26-.333-.6667-.667-1.3333-1-2-6.056 11.7817-11.89 23.7817-17.5 36-3.146 5.3289-6.979 9.9956-11.5 14h-8c-3.385-2.4092-5.551-5.7425-6.5-10-1.664-4.9565-1.997-9.9565-1-15-2.5 3.8333-5.667 7-9.5 9.5-6.462 1.8649-10.962-.3017-13.5-6.5-2.084 3.8359-4.417 7.5026-7 11-6.563 5.8212-11.896 4.8212-16-3-.333-3-.667-6-1-9-3.81 9.7535-10.143 12.0868-19 7-1.528-2.9167-2.861-5.9167-4-9-3.796 7.1246-8.963 12.9579-15.5 17.5-3 .6667-6 .6667-9 0-1.549-1.214-2.715-2.714-3.5-4.5-.993-3.9423-1.66-7.9423-2-12-3.835 9.3023-9.3348 17.3023-16.5 24h-8c-3.3846-2.4092-5.5512-5.7425-6.5-10-1.6638-4.9565-1.9971-9.9565-1-15-2.5 3.8333-5.6667 7-9.5 9.5-9.4413 1.3994-14.1079-2.7672-14-12.5 1.0654-11.2971 5.7321-20.7971 14-28.5 5.3912-3.1153 10.8912-3.282 16.5-.5 2.5252-2.8477 5.6918-3.681 9.5-2.5 2.0938 1.255 3.0938 3.0884 3 5.5-5.954 15.6213-7.6207 31.6213-5 48 3.3762-3.2142 6.2095-6.8808 8.5-11l9-18c1.138-10.9927 2.971-21.8261 5.5-32.5-2.333-.3333-4.667-.6667-7-1-1.017-1.0495-1.184-2.2161-.5-3.5 2.565-1.6793 5.398-2.346 8.5-2 .327-2.9818.327-5.8151 0-8.5 9.733-3.2661 13.399.0672 11 10 2.356.1554 4.689.1554 7 0 .88 1.3561 1.214 2.8561 1 4.5-3.211-.488-6.044.1787-8.5 2-2.049 13.9413-3.549 27.9413-4.5 42-.201 3.7276.799 7.0609 3 10 1.758-.6279 3.258-1.6279 4.5-3 3.841-5.6777 7.174-11.6777 10-18 .172-8.6175 1.005-17.1175 2.5-25.5 3.394-.7517 6.727-.5851 10 .5.41 13.3899.41 26.7232 0 40 4.219-1.0484 7.053-3.7151 8.5-8 2.335-9.1758 3.835-18.5091 4.5-28 5.411-2.8629 9.411-1.5296 12 4-2.901 12.2036-4.401 24.537-4.5 37 .249 1.124.749 2.124 1.5 3 2.395-2.4438 4.562-5.1105 6.5-8 4.491-9.1341 8.491-18.4675 12-28 5.461-9.8625 13.461-12.8625 24-9 2.525-2.8477 5.692-3.681 9.5-2.5 2.094 1.255 3.094 3.0884 3 5.5-5.954 15.6213-7.621 31.6213-5 48 3.376-3.2142 6.21-6.8808 8.5-11 5.917-11.3331 11.417-22.8331 16.5-34.5-5.809-5.0982-6.476-10.7649-2-17 9.073-3.9298 12.24-1.0965 9.5 8.5-.309 1.2659-.809 2.4326-1.5 3.5 3.626-.3159 7.293-.8159 11-1.5 1.6.0507 3.1.3841 4.5 1-.018 10.3394-.518 20.6727-1.5 31 .167 3.3333.333 6.6667.5 10 .414.4574.914.7907 1.5 1 6.045-5.7438 10.878-12.4105 14.5-20 1.235-7.2819 2.068-14.4486 2.5-21.5 3.744-.9285 7.244-.4285 10.5 1.5.521 9.2113.021 18.3779-1.5 27.5-.235 3.4959.598 6.6626 2.5 9.5 7.553-5.7292 13.053-13.0625 16.5-22 1.465-1.9236 3.132-2.2569 5-1Zm-240-11c1.175-.219 2.175.1143 3 1-2.6183 7.2375-5.785 14.2375-9.5 21-2.4799 5.1336-4.6466 5.1336-6.5 0 1.3233-9.3428 5.6567-16.6761 13-22Zm132 0c1.175-.219 2.175.1143 3 1-2.618 7.2375-5.785 14.2375-9.5 21-2.48 5.1336-4.647 5.1336-6.5 0 1.323-9.3428 5.657-16.6761 13-22Z"/><path fill="#000" d="M287.5 13.5c7.327-1.1707 10.494 1.8293 9.5 9-3.346 2.4731-6.846 2.6398-10.5.5-4.121-3.6708-3.788-6.8374 1-9.5Z"/>
</svg>