<?xml version="1.0" standalone="no"?>
<!DOCTYPE svg PUBLIC "-//W3C//DTD SVG 20010904//EN"
 "http://www.w3.org/TR/2001/REC-SVG-20010904/DTD/svg10.dtd">
<svg version="1.0" xmlns="http://www.w3.org/2000/svg"
 width="520.000000pt" height="520.000000pt" viewBox="0 0 520.000000 520.000000"
 preserveAspectRatio="xMidYMid meet">
<metadata>
Created by potrace 1.14, written by Peter Selinger 2001-2017
</metadata>
<g transform="translate(0.000000,520.000000) scale(0.100000,-0.100000)"
fill="#000000" stroke="none">
<path d="M2728 5003 c-24 -6 -23 -20 3 -34 15 -7 59 -9 138 -5 217 11 331 5
331 -19 0 -8 20 -14 59 -17 36 -2 65 -10 75 -20 8 -9 21 -18 28 -20 18 -6 -8
-43 -72 -104 -142 -137 -184 -180 -206 -215 -42 -67 -58 -73 -202 -67 -116 5
-163 2 -292 -17 l-45 -7 -70 69 c-38 38 -83 77 -98 86 -15 10 -33 28 -38 41
-6 13 -26 32 -44 42 -18 10 -56 41 -84 67 -47 44 -51 52 -43 75 7 23 16 28 53
32 24 3 43 10 41 15 -3 12 -95 7 -103 -6 -13 -21 -77 -21 -121 -1 -107 49
-127 52 -175 23 -42 -26 -83 -109 -83 -168 0 -42 -4 -48 -66 -109 -37 -35 -70
-64 -75 -64 -5 0 -18 -14 -31 -30 -12 -17 -37 -39 -55 -50 -18 -11 -38 -31
-43 -45 -5 -14 -21 -30 -35 -37 -13 -6 -27 -18 -30 -27 -8 -22 -52 -71 -65
-71 -5 0 -10 -8 -10 -18 0 -10 -15 -35 -34 -55 -39 -43 -76 -109 -76 -137 0
-10 -9 -22 -20 -25 -11 -3 -20 -14 -20 -24 0 -10 -9 -28 -20 -41 -11 -13 -20
-33 -20 -45 0 -12 -9 -30 -20 -40 -23 -21 -27 -65 -6 -65 14 0 26 21 26 47 0
8 7 21 15 29 8 9 15 24 15 35 0 10 9 24 20 31 11 7 30 33 41 58 11 25 25 52
30 60 5 8 22 34 37 58 15 24 40 58 56 75 38 42 76 103 76 121 0 8 13 19 29 24
34 12 81 60 81 84 0 9 9 20 20 23 11 3 20 10 20 16 0 5 18 21 40 35 22 15 40
33 40 40 0 18 11 18 34 1 15 -11 17 -22 11 -68 -14 -100 -7 -455 10 -512 16
-55 21 -247 6 -262 -20 -22 -36 -146 -35 -275 2 -123 4 -140 28 -190 14 -30
26 -61 26 -69 0 -8 6 -22 14 -30 8 -9 26 -41 42 -71 15 -30 43 -75 62 -100 45
-58 149 -157 184 -176 28 -14 58 -50 58 -69 0 -5 -31 -35 -68 -65 -83 -66
-126 -121 -141 -177 -17 -63 -122 -163 -157 -149 -17 6 -74 125 -74 153 0 11
-7 28 -15 39 -22 29 -18 62 14 103 56 71 71 116 71 217 0 51 -4 95 -9 98 -5 3
-14 25 -20 49 -6 25 -17 50 -26 57 -8 7 -15 19 -15 27 0 16 -61 100 -109 152
-35 37 -38 49 -16 57 8 4 15 12 15 20 0 7 9 18 20 24 11 6 20 17 20 26 0 8 9
27 21 43 28 37 39 117 44 301 7 279 -40 441 -131 452 -24 3 -39 -1 -51 -14 -9
-10 -21 -18 -27 -18 -12 0 -108 -94 -149 -145 -29 -36 -97 -173 -97 -195 0 -9
-5 -21 -11 -27 -14 -14 -28 -170 -29 -305 0 -119 0 -120 -73 -133 -33 -6 -38
-5 -46 18 -10 26 -4 105 10 122 11 15 23 160 14 182 -11 27 -33 -39 -34 -102
-1 -28 -8 -60 -16 -72 -8 -12 -18 -56 -22 -97 -5 -65 -9 -78 -30 -92 -42 -27
-67 -12 -102 60 -17 36 -31 68 -31 72 0 11 -68 93 -129 157 -47 49 -61 57 -91
57 -57 -1 -153 -66 -275 -186 l-90 -89 -3 -107 c-3 -83 0 -115 13 -145 28 -64
31 -68 57 -71 18 -2 36 10 75 50 28 30 61 61 75 70 22 15 25 14 56 -11 17 -14
48 -39 68 -55 32 -26 35 -33 29 -64 -4 -19 -14 -46 -23 -60 -23 -35 -22 -250
2 -286 9 -14 16 -31 16 -37 0 -7 7 -21 17 -31 9 -10 21 -26 27 -37 6 -10 24
-37 39 -59 16 -22 26 -45 23 -50 -3 -5 -40 -12 -83 -16 -104 -8 -114 -19 -77
-84 43 -74 191 -222 223 -222 14 0 55 -60 46 -68 -9 -10 -108 -31 -190 -41
-76 -9 -121 -26 -129 -48 -9 -23 35 -72 89 -99 27 -14 57 -29 65 -33 33 -17
87 -41 125 -55 22 -7 65 -24 95 -36 30 -12 73 -26 95 -30 27 -6 50 -20 70 -43
42 -48 59 -55 172 -68 54 -6 104 -16 112 -22 8 -7 59 -17 115 -23 56 -7 142
-17 191 -23 224 -27 277 -32 375 -41 58 -5 202 -11 320 -14 201 -5 265 -13
298 -39 14 -11 17 -107 3 -107 -5 0 -17 -22 -26 -50 -9 -27 -20 -50 -25 -50
-5 0 -12 -10 -16 -22 -3 -13 -22 -42 -40 -65 -19 -23 -34 -47 -34 -55 -1 -7
-9 -31 -20 -53 -11 -22 -19 -52 -20 -66 0 -15 -9 -38 -20 -52 -12 -15 -20 -40
-20 -64 0 -21 -7 -56 -15 -78 -23 -63 -20 -306 5 -429 11 -55 26 -107 33 -115
6 -9 22 -36 35 -61 12 -25 38 -62 57 -82 31 -33 41 -38 80 -38 34 0 45 4 45
15 0 9 11 21 25 27 39 17 65 68 65 124 0 47 -8 78 -53 204 -26 76 -25 251 3
312 11 24 20 54 20 68 0 14 6 34 13 45 7 11 19 39 26 63 6 23 16 42 21 42 5 0
12 10 15 23 11 38 56 123 78 149 20 22 32 41 64 103 5 11 18 34 27 52 10 20
16 55 16 98 l0 66 38 16 c28 12 86 17 242 20 113 2 243 8 290 13 205 23 279
31 345 41 39 5 106 15 150 20 44 6 106 19 137 30 32 10 71 19 88 19 48 0 119
37 131 68 13 34 26 42 67 42 18 0 70 18 117 40 47 22 88 40 91 40 4 0 30 12
58 26 129 65 146 78 149 120 2 26 -2 29 -53 45 -30 9 -84 20 -120 24 -36 4
-83 16 -105 27 l-40 21 55 48 c29 27 57 49 60 49 9 0 100 84 100 93 0 4 17 32
39 63 37 54 43 85 19 100 -6 4 -84 10 -173 15 -90 5 -189 16 -221 24 -32 8
-83 15 -114 15 -42 0 -61 5 -82 23 -24 20 -26 27 -21 69 5 40 10 48 36 59 65
27 99 5 99 -64 0 -50 15 -71 43 -61 17 7 75 122 75 149 0 19 59 116 108 175
23 28 42 60 42 70 0 10 7 31 15 46 20 38 20 160 0 198 -8 15 -15 47 -15 71 0
27 -7 51 -20 67 -12 16 -23 54 -30 109 -6 46 -15 102 -20 124 -5 22 -10 54
-10 72 0 35 -39 160 -64 208 -9 17 -16 35 -16 41 0 7 -7 25 -15 40 -8 16 -15
36 -15 45 0 9 -9 24 -20 34 -11 10 -20 26 -20 36 0 19 -38 100 -51 109 -10 7
-59 79 -59 87 0 3 -10 18 -22 33 -13 15 -30 38 -38 51 -14 22 -66 80 -165 182
-50 52 -130 117 -144 117 -6 0 -11 7 -11 15 0 8 -4 15 -8 15 -8 0 -49 31 -90
68 -14 12 -28 22 -32 22 -7 0 -42 105 -54 160 -3 14 -18 41 -35 60 -28 34 -32
35 -93 34 -64 -1 -98 -14 -140 -56 -23 -23 -88 -24 -130 -2 -16 9 -56 18 -87
21 -31 3 -59 11 -63 17 -10 15 -437 41 -480 29z m951 -54 c1 -5 11 -18 21 -27
29 -27 57 -129 64 -228 3 -50 10 -114 17 -142 10 -51 7 -392 -7 -551 -4 -54
-2 -82 9 -105 28 -60 40 -101 44 -153 5 -58 -11 -74 -22 -23 -4 17 -15 35 -25
40 -10 5 -21 23 -25 39 -3 17 -15 33 -25 36 -11 3 -30 19 -44 36 -14 16 -66
50 -115 75 l-90 46 -129 -3 c-90 -3 -134 -8 -145 -18 -9 -7 -43 -26 -74 -41
-70 -33 -203 -172 -203 -211 0 -10 -4 -20 -9 -24 -5 -3 -15 -30 -21 -60 -13
-65 -36 -85 -96 -85 l-41 0 -23 63 c-64 181 -124 259 -242 316 -32 16 -66 35
-75 42 -12 10 -52 14 -147 14 l-131 0 -87 -43 c-47 -24 -100 -58 -117 -75 -17
-18 -42 -43 -55 -56 -14 -14 -30 -36 -36 -50 -11 -28 -60 -58 -60 -38 0 7 7
43 15 81 13 61 13 88 -1 235 -23 245 -28 427 -15 538 20 167 32 231 47 244 8
6 14 20 14 30 0 10 11 26 25 35 32 21 105 12 131 -17 10 -11 34 -29 53 -41 49
-30 213 -160 265 -211 24 -23 54 -51 67 -63 13 -12 45 -44 70 -71 l47 -50 263
4 264 4 43 47 c23 26 57 63 75 82 18 19 57 62 87 95 30 33 62 65 71 70 9 6 50
40 90 76 98 88 171 146 195 152 26 7 78 -1 83 -14z m198 -311 c15 -7 38 -21
50 -32 11 -10 41 -37 66 -60 26 -22 60 -51 77 -64 16 -13 30 -30 30 -38 0 -8
4 -14 9 -14 12 0 61 -44 61 -55 0 -4 16 -24 36 -45 20 -21 41 -47 48 -58 27
-48 111 -179 126 -197 10 -11 20 -32 24 -47 3 -16 11 -28 16 -28 6 0 10 -9 10
-20 0 -12 6 -33 14 -48 7 -15 17 -47 21 -72 4 -25 13 -55 21 -67 8 -12 14 -35
14 -50 0 -15 7 -41 15 -57 9 -16 21 -61 28 -99 6 -38 17 -72 24 -74 14 -6 19
-118 5 -127 -5 -3 -27 6 -51 20 -51 29 -148 33 -195 9 -15 -8 -37 -15 -47 -15
-11 0 -23 -10 -29 -24 -6 -16 -20 -27 -40 -31 -24 -5 -36 -16 -46 -41 -27 -66
-46 -177 -40 -240 6 -53 3 -68 -19 -110 -36 -70 -48 -84 -86 -94 -70 -20 -108
-4 -109 46 0 19 -62 74 -83 74 -4 0 -27 -19 -52 -42 l-45 -43 1 -67 c1 -63 3
-69 26 -74 33 -9 92 2 113 21 22 20 46 19 99 -5 24 -11 52 -20 64 -20 11 0 29
-7 39 -16 10 -10 41 -21 70 -25 60 -10 68 -19 68 -78 0 -39 -5 -49 -43 -85
-23 -23 -49 -54 -57 -70 -19 -37 -45 -46 -163 -53 -86 -5 -101 -4 -109 10 -5
10 -15 17 -22 17 -16 0 -53 50 -62 84 -3 14 -22 42 -41 62 -19 20 -41 48 -50
61 -8 12 -20 23 -25 23 -19 0 -128 105 -128 124 0 21 27 56 43 56 21 0 207
176 207 196 0 7 6 19 14 26 19 20 66 110 66 128 0 9 15 42 32 75 l32 60 1 180
c0 179 0 180 -33 270 l-33 90 0 305 c-1 390 0 460 5 460 2 0 17 -6 33 -12z
m-2275 -523 c10 -28 21 -77 24 -110 3 -33 12 -77 20 -98 19 -51 19 -207 -1
-254 -8 -19 -15 -50 -15 -68 0 -58 -57 -186 -105 -236 -27 -28 -19 -62 20 -83
35 -19 125 -128 125 -152 0 -6 7 -17 15 -24 8 -7 15 -26 15 -42 0 -16 7 -45
15 -65 16 -39 20 -148 6 -158 -5 -3 -13 -20 -17 -37 -3 -18 -14 -44 -23 -58
-31 -49 -106 -120 -138 -131 -18 -6 -33 -15 -33 -20 0 -5 -6 -9 -14 -9 -7 0
-25 -9 -39 -20 -14 -11 -40 -23 -59 -26 -18 -4 -38 -11 -45 -16 -7 -5 -66 -20
-132 -34 -96 -19 -130 -22 -174 -14 -56 9 -110 31 -122 50 -3 5 -19 10 -35 10
-16 0 -39 4 -52 9 -35 15 -112 92 -130 131 -9 19 -26 57 -38 83 -19 43 -22 61
-18 149 3 81 7 102 21 109 9 6 17 16 17 24 0 8 8 30 17 50 16 34 16 35 -7 60
-13 14 -31 25 -41 25 -26 0 -109 83 -109 110 0 19 4 21 27 16 14 -4 35 -19 47
-34 53 -69 108 -112 141 -112 8 0 38 17 65 37 83 62 69 97 -107 266 -66 63
-71 70 -62 95 5 15 17 37 27 49 l17 23 28 -28 c59 -59 147 -194 147 -227 0
-23 41 -85 57 -85 8 0 33 9 56 19 23 10 83 26 132 35 50 10 97 19 106 22 15 4
17 30 21 198 2 121 8 199 15 207 6 8 14 38 18 67 5 35 18 70 41 103 19 28 34
55 34 60 0 14 102 119 150 155 25 19 52 33 60 31 8 -1 22 -25 32 -52z m760
-194 c86 -19 182 -69 218 -114 8 -10 25 -31 36 -46 44 -54 63 -105 70 -187 10
-124 -7 -205 -62 -281 -42 -59 -124 -133 -147 -133 -6 0 -18 -7 -28 -16 -9 -8
-54 -22 -99 -30 -192 -33 -344 34 -455 202 -80 121 -69 337 23 445 25 30 68
73 83 84 60 45 91 60 157 75 101 23 104 23 204 1z m1122 -1 c47 -12 92 -31
114 -48 20 -16 44 -33 53 -38 10 -5 35 -30 56 -57 45 -54 88 -182 87 -259 0
-48 -24 -137 -51 -195 -19 -39 -91 -120 -124 -138 -120 -68 -128 -70 -254 -70
-116 0 -122 1 -188 34 -84 41 -147 106 -198 202 -36 71 -38 78 -38 169 -1 86
2 101 29 155 72 143 150 211 280 246 87 23 142 23 234 -1z m-2856 -307 c5 -10
6 -27 1 -38 -4 -11 -8 -32 -8 -46 -1 -34 -94 -223 -126 -255 -14 -14 -32 -37
-40 -52 -8 -15 -30 -44 -48 -64 l-34 -38 -28 30 c-28 29 -29 34 -29 128 l-1
99 36 40 c20 22 40 47 45 54 16 25 193 158 211 158 7 1 16 -7 21 -16z m2246
-135 c8 -13 20 -45 27 -73 7 -27 18 -61 26 -75 7 -14 13 -30 13 -37 0 -7 6
-16 13 -20 7 -4 32 -32 56 -60 23 -29 48 -53 55 -53 6 0 17 -9 24 -20 7 -11
17 -20 23 -20 7 0 35 -14 63 -32 50 -31 53 -32 176 -32 102 -1 131 2 155 16
17 10 36 18 43 18 46 0 212 133 212 169 0 6 11 16 25 21 17 7 25 17 25 34 0
14 5 28 10 31 16 10 11 -48 -5 -69 -8 -11 -15 -31 -15 -44 0 -13 -9 -35 -20
-49 -11 -14 -20 -34 -20 -43 0 -35 -97 -146 -185 -211 -33 -24 -64 -50 -68
-56 -4 -7 -15 -13 -23 -13 -9 0 -28 -6 -42 -14 -98 -52 -180 -80 -287 -97 -27
-4 -75 -15 -105 -24 -42 -12 -101 -16 -250 -17 -175 -1 -201 1 -257 21 -34 11
-73 21 -85 21 -31 1 -172 43 -189 57 -8 6 -24 14 -37 18 -34 10 -98 48 -132
78 -16 15 -34 27 -39 27 -13 0 -131 122 -131 137 0 7 -8 17 -18 22 -18 10 -92
149 -92 175 0 30 17 24 50 -17 34 -43 113 -111 159 -136 80 -45 154 -61 283
-61 136 0 173 8 182 38 4 11 26 33 49 48 53 36 113 99 136 144 23 44 67 156
75 193 6 25 10 27 56 27 40 0 52 -4 64 -22z m1710 -179 c56 -61 76 -116 76
-206 0 -61 -5 -87 -25 -130 -14 -29 -29 -53 -34 -53 -4 0 -12 -9 -17 -19 -15
-33 -110 -99 -170 -121 -84 -29 -260 -29 -338 1 -60 23 -71 44 -32 59 23 8 77
70 104 119 9 16 15 67 17 147 2 94 6 129 19 148 29 46 86 96 114 101 15 3 47
12 72 19 39 11 53 10 110 -6 51 -14 73 -27 104 -59z m-754 -379 c0 -5 -2 -10
-4 -10 -3 0 -8 5 -11 10 -3 6 -1 10 4 10 6 0 11 -4 11 -10z m-380 -182 c0 -23
-43 -46 -99 -53 -34 -4 -64 -11 -67 -16 -3 -5 -17 -9 -31 -9 -35 0 -105 -21
-124 -37 -12 -10 -75 -13 -282 -13 -240 0 -272 2 -310 19 -41 18 -224 61 -260
61 -10 0 -25 7 -33 15 -14 13 -14 16 2 22 9 3 31 -1 48 -10 17 -9 54 -19 81
-23 28 -4 55 -10 60 -14 6 -4 40 -10 78 -13 37 -2 73 -10 81 -16 22 -18 174
-33 266 -26 47 4 111 16 142 26 32 10 82 19 112 19 30 0 57 4 60 9 3 4 29 11
58 14 29 3 71 15 93 26 21 12 46 21 55 21 9 0 25 6 36 14 18 14 33 6 34 -16z
m1017 -24 c-3 -3 -12 -4 -19 -1 -8 3 -5 6 6 6 11 1 17 -2 13 -5z m-2341 -66
c-4 -18 -9 -51 -12 -73 -9 -68 -27 -117 -46 -124 -10 -3 -36 -5 -58 -3 -36 4
-40 7 -46 39 -5 27 -2 41 15 63 11 16 21 32 21 35 0 17 91 95 110 95 20 0 22
-4 16 -32z m1517 -31 c26 -26 47 -53 47 -58 0 -6 7 -17 15 -25 8 -9 15 -19 15
-24 0 -9 -96 -40 -123 -40 -17 0 -27 29 -27 83 0 21 -7 45 -15 53 -18 19 -20
61 -2 67 21 7 40 -5 90 -56z m-1348 -1 c22 -8 56 -15 76 -16 20 0 52 -6 70
-14 19 -8 59 -17 89 -21 30 -4 80 -13 111 -21 78 -19 324 -19 409 1 139 32
207 46 263 55 32 6 70 16 85 24 15 8 43 17 63 21 33 6 35 5 53 -34 9 -23 20
-74 23 -115 7 -88 6 -88 -107 -106 -83 -12 -1240 -27 -1284 -16 -21 5 -26 12
-26 39 0 18 7 59 15 90 8 32 15 71 15 87 0 22 7 33 27 43 28 15 37 13 118 -17z
m-658 -38 c24 -27 67 -144 58 -158 -3 -6 -19 -10 -36 -10 -19 0 -29 -5 -29
-15 0 -36 -76 -47 -89 -12 -11 29 2 45 42 50 24 3 20 4 -15 5 -26 1 -50 -2
-53 -8 -8 -12 -115 -13 -134 -1 -22 14 -3 51 30 58 16 3 34 12 40 19 6 8 20
14 29 14 10 0 32 11 48 25 17 14 34 25 40 25 5 0 15 7 22 15 17 20 23 19 47
-7z m-753 -94 c22 -22 20 -33 -9 -40 -29 -7 -75 2 -75 15 0 16 31 41 50 41 10
0 26 -7 34 -16z m3412 -6 c37 -17 18 -28 -51 -28 -69 0 -84 9 -59 35 18 18 62
15 110 -7z m-3509 -55 c26 -17 115 -12 139 7 11 10 24 10 57 1 23 -6 65 -12
92 -13 l50 -3 8 -135 c10 -170 3 -271 -23 -359 -25 -80 -39 -96 -77 -88 -104
21 -139 30 -148 36 -5 4 -31 14 -57 21 -27 7 -48 16 -48 21 0 4 -16 11 -35 15
-19 3 -39 12 -46 20 -6 8 -19 14 -29 14 -17 0 -50 39 -50 58 0 5 37 12 83 15
124 9 257 62 257 103 0 23 -33 54 -57 54 -22 0 -136 84 -191 140 -63 65 -88
106 -69 114 21 8 121 -6 144 -21z m2988 11 c34 -22 60 -75 43 -86 -7 -4 -20
-8 -29 -8 -9 0 -28 -9 -42 -20 -37 -29 -63 -26 -76 10 -6 19 -17 30 -28 30
-22 0 -43 18 -43 37 0 7 10 21 22 33 28 25 117 28 153 4z m925 6 c116 0 129
-6 111 -53 -21 -53 -156 -169 -248 -212 -29 -14 -55 -30 -58 -35 -14 -22 8
-48 63 -74 52 -25 83 -32 222 -54 58 -9 64 -32 15 -61 -20 -11 -41 -21 -47
-21 -6 0 -19 -6 -27 -14 -17 -15 -158 -66 -183 -66 -8 0 -31 -11 -51 -24 -75
-51 -89 9 -85 364 l3 263 89 -7 c49 -3 137 -6 196 -6z m-2659 -26 c18 -5 42
-51 34 -64 -3 -5 -19 -11 -35 -15 -21 -5 -32 -14 -36 -31 -8 -31 -48 -42 -72
-21 -9 8 -30 17 -47 19 -24 2 -31 8 -33 30 -4 36 24 76 62 87 28 9 86 6 127
-5z m-741 -19 c24 -8 75 -18 114 -21 78 -7 139 -35 134 -63 -2 -12 -19 -17
-68 -22 -90 -8 -112 -19 -141 -75 -32 -60 -44 -108 -60 -241 -11 -94 -11 -104
7 -135 23 -39 66 -62 151 -79 52 -11 70 -10 110 2 43 13 50 19 63 57 13 39 13
43 -6 69 -24 32 -64 45 -116 36 -46 -7 -48 -17 -8 -32 36 -12 38 -33 8 -61
-31 -29 -72 -26 -87 6 -6 14 -8 30 -5 36 11 18 44 201 44 245 0 46 29 90 81
120 16 10 29 22 29 28 0 5 18 25 40 43 36 30 44 32 114 32 60 0 79 -4 91 -17
35 -41 53 -59 69 -68 17 -10 17 -13 1 -55 -9 -25 -25 -65 -36 -90 -10 -25 -30
-91 -43 -148 -17 -68 -35 -117 -55 -148 -48 -71 -38 -107 25 -84 31 12 94 68
94 83 0 21 44 96 59 102 19 7 49 -26 57 -64 3 -14 14 -53 24 -86 15 -53 21
-60 45 -63 15 -2 38 -1 51 2 21 6 24 12 24 49 0 39 -21 111 -55 182 -7 17 -21
59 -30 95 -43 175 -42 195 8 233 77 58 88 60 319 52 142 -4 323 -1 543 9 182
9 409 16 505 16 l175 -1 35 -31 c31 -29 33 -32 16 -42 -50 -30 -77 -60 -72
-80 3 -12 10 -91 16 -176 6 -85 19 -189 28 -230 l18 -75 59 0 c57 0 60 1 63
26 2 14 -7 71 -19 125 -37 173 -37 189 8 178 15 -4 24 -19 32 -50 6 -24 25
-66 41 -94 17 -28 36 -66 44 -83 7 -18 29 -50 48 -71 29 -33 38 -38 61 -32 41
10 38 36 -22 171 -56 126 -66 147 -78 157 -25 20 -15 57 21 79 54 31 62 110
13 125 -12 3 -37 13 -54 21 l-33 15 25 20 c14 11 32 32 40 48 13 26 19 28 102
34 48 4 130 14 180 22 51 8 117 14 148 14 51 0 55 -2 62 -27 4 -16 7 -140 7
-278 1 -209 4 -258 18 -298 17 -46 17 -48 -4 -67 -11 -10 -44 -23 -72 -28
-100 -19 -192 -33 -271 -43 -44 -5 -96 -16 -115 -23 -19 -8 -84 -17 -144 -21
-59 -4 -122 -11 -140 -16 -53 -16 -454 -33 -806 -33 -331 0 -799 16 -819 28
-6 4 -79 12 -163 17 -84 6 -160 15 -169 20 -9 4 -59 13 -110 19 -52 6 -111 16
-132 21 -21 6 -87 14 -147 19 -114 9 -133 15 -164 48 -17 20 -17 23 -1 74 9
29 25 71 35 93 25 53 44 199 36 266 -14 110 -18 179 -12 204 5 20 12 25 40 25
18 0 53 -7 76 -15z m2506 -180 c12 -29 -54 -105 -91 -105 -27 0 -40 28 -31 66
11 42 109 73 122 39z m-836 -700 c17 -20 4 -141 -16 -149 -8 -3 -14 -14 -14
-25 0 -20 -40 -102 -63 -131 -7 -8 -24 -37 -38 -64 -13 -26 -30 -50 -36 -53
-7 -3 -13 -10 -13 -17 0 -6 -9 -28 -20 -49 -11 -20 -20 -44 -20 -52 0 -8 -9
-29 -20 -47 -11 -18 -20 -49 -20 -68 -1 -19 -7 -46 -15 -60 -10 -18 -14 -62
-15 -158 0 -110 -3 -134 -15 -139 -9 -3 -24 2 -35 12 -17 16 -19 16 -30 -4 -6
-12 -19 -21 -30 -21 -11 0 -30 -11 -43 -25 l-23 -26 -24 26 c-23 24 -25 35
-28 159 -4 111 -1 146 17 214 12 45 21 95 21 112 0 17 7 38 15 46 8 9 15 30
15 47 0 18 11 49 25 69 14 20 25 41 25 47 0 5 4 11 8 13 4 2 23 28 41 58 19
30 37 57 41 60 8 6 29 102 37 170 2 25 12 51 21 58 24 19 236 17 252 -3z"/>
<path d="M3511 4739 c-26 -10 -184 -151 -264 -234 -61 -64 -70 -92 -30 -100
55 -13 69 -18 161 -62 51 -25 105 -55 120 -67 15 -13 35 -27 44 -32 9 -5 42
-34 73 -63 46 -44 59 -52 66 -40 7 9 8 92 5 219 -4 171 -9 216 -26 270 -34
104 -79 137 -149 109z"/>
<path d="M1943 4657 c-13 -18 -23 -38 -23 -44 0 -5 -8 -25 -17 -44 -15 -29
-18 -66 -18 -257 0 -187 2 -224 15 -232 11 -7 20 -3 35 16 47 60 115 123 188
172 43 28 81 52 84 52 3 0 24 8 47 19 23 10 53 24 68 29 15 6 31 20 37 30 9
17 2 28 -48 74 -31 30 -95 83 -142 119 -145 110 -188 122 -226 66z"/>
<path d="M2991 4286 c-1 -29 2 -37 10 -29 8 8 8 19 1 40 -10 28 -10 28 -11
-11z"/>
<path d="M2610 4276 c0 -22 3 -27 11 -19 8 8 8 16 0 30 -9 16 -10 14 -11 -11z"/>
<path d="M2803 4233 c-15 -6 -17 -73 -3 -73 14 0 22 23 18 53 -2 14 -8 22 -15
20z"/>
<path d="M1451 3908 c-47 -57 -80 -111 -86 -139 -4 -19 -11 -39 -16 -45 -15
-18 -40 -144 -51 -257 -13 -127 -11 -132 74 -152 43 -10 60 -10 78 0 22 12 70
96 70 125 0 8 7 33 15 55 17 47 20 240 5 298 -6 20 -14 53 -19 73 -13 50 -47
70 -70 42z"/>
<path d="M1378 2993 c7 -3 16 -2 19 1 4 3 -2 6 -13 5 -11 0 -14 -3 -6 -6z"/>
<path d="M1340 2900 c0 -33 4 -60 10 -60 6 0 10 27 10 60 0 33 -4 60 -10 60
-6 0 -10 -27 -10 -60z"/>
<path d="M1520 2953 c0 -5 5 -15 10 -23 8 -12 10 -11 10 8 0 12 -4 22 -10 22
-5 0 -10 -3 -10 -7z"/>
<path d="M860 2865 c-18 -20 -20 -25 -8 -25 9 0 18 5 20 12 3 7 24 12 51 13
31 0 47 4 47 13 0 8 -15 12 -43 12 -33 0 -49 -6 -67 -25z"/>
<path d="M990 2846 c0 -2 7 -9 15 -16 12 -10 15 -10 15 4 0 9 -7 16 -15 16 -8
0 -15 -2 -15 -4z"/>
<path d="M810 2771 c0 -32 3 -39 16 -34 18 7 16 64 -3 71 -9 2 -13 -9 -13 -37z"/>
<path d="M1204 2739 c-11 -18 17 -59 41 -59 33 0 36 10 13 41 -23 30 -42 37
-54 18z"/>
<path d="M2210 3682 c-60 -9 -136 -135 -128 -212 5 -51 24 -47 31 5 7 49 33
104 71 149 22 26 31 29 87 30 42 1 64 -3 67 -12 2 -7 10 -19 18 -26 8 -8 14
-17 14 -21 0 -3 9 -18 20 -33 11 -15 23 -51 27 -80 8 -72 28 -62 28 14 0 49
-5 66 -30 103 -17 24 -41 52 -55 62 -25 17 -105 29 -150 21z"/>
<path d="M3286 3659 c-57 -45 -114 -219 -72 -219 14 0 26 29 26 64 0 28 40
106 53 106 7 0 18 9 25 20 10 16 23 20 70 20 51 0 62 -4 84 -27 35 -38 68
-102 68 -133 0 -15 7 -35 15 -46 13 -17 14 -14 15 43 0 53 -4 69 -30 107 -50
74 -72 86 -155 86 -59 0 -77 -4 -99 -21z"/>
<path d="M2812 3214 c-22 -15 -31 -54 -12 -54 18 0 40 -58 40 -105 0 -28 4
-44 10 -40 6 3 10 22 10 41 0 26 10 47 35 78 19 24 35 46 35 49 0 9 -66 47
-81 47 -8 0 -25 -7 -37 -16z"/>
<path d="M4333 3115 c-18 -8 -33 -18 -33 -24 0 -5 -10 -11 -22 -13 -14 -2 -29
-18 -44 -48 -36 -73 -39 -89 -14 -98 20 -7 20 -9 6 -21 -22 -18 -20 -64 2 -84
25 -22 30 -22 102 12 78 37 92 61 96 169 4 72 1 85 -16 102 -23 23 -34 24 -77
5z m62 -85 c4 -6 -7 -10 -27 -10 -25 0 -29 3 -18 10 19 13 37 13 45 0z"/>
<path d="M4080 2255 c-7 -8 -9 -22 -6 -31 3 -9 11 -89 16 -177 11 -183 25
-259 52 -283 16 -15 23 -16 58 -4 22 7 42 20 45 29 3 9 0 48 -5 86 -6 39 -15
117 -20 175 -14 155 -20 188 -36 205 -20 19 -88 20 -104 0z"/>
<path d="M3251 2201 c-32 -32 -52 -123 -58 -269 -4 -91 -12 -157 -24 -196 -23
-70 -14 -90 31 -75 42 15 57 37 85 124 33 100 40 109 70 89 23 -15 75 -118 75
-148 0 -25 46 -39 86 -26 40 13 55 51 32 78 -8 9 -23 35 -33 57 -11 22 -32 57
-48 77 -15 20 -33 52 -39 70 -6 18 -26 56 -43 83 -18 28 -35 67 -39 87 -12 65
-56 88 -95 49z m89 -257 c0 -8 -5 -12 -10 -9 -6 4 -8 11 -5 16 9 14 15 11 15
-7z"/>
<path d="M2256 2187 c3 -9 21 -21 39 -27 18 -6 35 -16 38 -23 2 -7 0 -50 -5
-97 -5 -47 -12 -146 -17 -220 l-9 -135 27 -22 c39 -34 69 -30 86 10 14 35 20
92 31 312 4 77 11 146 17 153 5 6 24 12 41 12 17 1 42 7 55 14 l25 14 -30 5
c-16 3 -91 9 -167 13 -122 6 -137 5 -131 -9z"/>
<path d="M2663 2158 c-14 -16 -53 -271 -53 -342 0 -75 15 -118 55 -156 35 -34
38 -35 130 -38 104 -4 88 -11 165 73 38 43 47 80 59 254 11 164 11 175 -6 192
-23 21 -89 34 -98 18 -4 -6 -14 -88 -21 -182 -17 -204 -32 -258 -78 -287 -42
-26 -53 -25 -62 2 -9 29 -6 242 5 348 8 74 7 87 -7 102 -23 24 -75 33 -89 16z"/>
<path d="M2456 4981 c-3 -5 1 -14 8 -21 19 -15 148 -3 173 16 15 11 4 13 -79
14 -53 0 -99 -4 -102 -9z"/>
<path d="M2333 4946 c-30 -14 -29 -26 1 -26 21 0 56 22 56 36 0 7 -34 2 -57
-10z"/>
<path d="M1117 3833 c-11 -10 -8 -61 3 -68 6 -4 10 10 10 34 0 42 -2 46 -13
34z"/>
</g>
</svg>
